# xmcd CD database file
#
# Track frame offsets:
#	150
#	13593
#	67758
#	125713
#	142746
#	197451
#	251014
#	300445
#	312993
#	326791
#
# Disc length: 4548 seconds
#
# Revision: 0
# Processed by: cddbd v1.5.2PL0 Copyright (c) Steve Scherf et al.
# Submitted via: CDex 1.70beta2
#
DISCID=8111c20a
DTITLE=Oscar Peterson - Strike Up The Band - CD 1
DYEAR=1900
DGENRE=Jazz
TTITLE0=East Of The Sun
TTITLE1=The Astaire Blues
TTITLE2=Tea For Two
TTITLE3=Slow Down
TTITLE4=Oh, Lady Be Good
TTITLE5=Body and Soul
TTITLE6=Stompin´ At The Savoy
TTITLE7=Rough Ridin´
TTITLE8=Just One Of Those Things
TTITLE9=It Ain´t Necessarily So
EXTD=
EXTT0=
EXTT1=
EXTT2=
EXTT3=
EXTT4=
EXTT5=
EXTT6=
EXTT7=
EXTT8=
EXTT9=
PLAYORDER=
